<svg width="300" height="300" viewBox="0 0 300 300" fill="none" xmlns="http://www.w3.org/2000/svg">
<path d="M280 120C280 175.228 235.228 220 180 220C124.772 220 80 175.228 80 120C80 64.7715 124.772 20 180 20C235.228 20 280 64.7715 280 120Z" fill="url(#paint0_linear_1_60)"/>
<path d="M207.837 227.837C193.628 235.592 177.328 240 160 240C104.772 240 60 195.228 60 140C60 122.672 64.4076 106.372 72.1627 92.1628C41.084 109.124 20 142.1 20 180C20 235.228 64.7715 280 120 280C157.9 280 190.876 258.916 207.837 227.837Z" fill="url(#paint1_linear_1_60)"/>
<defs>
<linearGradient id="paint0_linear_1_60" x1="20" y1="280" x2="280" y2="20" gradientUnits="userSpaceOnUse">
<stop stop-color="#0F2027"/>
<stop offset="0.5" stop-color="#203A43"/>
<stop offset="1" stop-color="#2C5364"/>
</linearGradient>
<linearGradient id="paint1_linear_1_60" x1="20" y1="280" x2="280" y2="20" gradientUnits="userSpaceOnUse">
<stop stop-color="#0F2027"/>
<stop offset="0.5" stop-color="#203A43"/>
<stop offset="1" stop-color="#2C5364"/>
</linearGradient>
</defs>
</svg>
