<svg width="300" height="300" viewBox="0 0 300 300" fill="none" xmlns="http://www.w3.org/2000/svg">
<path fill-rule="evenodd" clip-rule="evenodd" d="M20 170C20 158.954 28.9543 150 40 150H260C271.046 150 280 158.954 280 170C280 181.046 271.046 190 260 190H40C28.9543 190 20 181.046 20 170ZM265 170C265 172.761 262.761 175 260 175C257.239 175 255 172.761 255 170C255 167.239 257.239 165 260 165C262.761 165 265 167.239 265 170ZM40 175C42.7614 175 45 172.761 45 170C45 167.239 42.7614 165 40 165C37.2386 165 35 167.239 35 170C35 172.761 37.2386 175 40 175Z" fill="url(#paint0_linear_1_54)"/>
<path fill-rule="evenodd" clip-rule="evenodd" d="M20 120C20 108.954 28.9543 100 40 100H260C271.046 100 280 108.954 280 120C280 131.046 271.046 140 260 140H40C28.9543 140 20 131.046 20 120ZM45 120C45 122.761 42.7614 125 40 125C37.2386 125 35 122.761 35 120C35 117.239 37.2386 115 40 115C42.7614 115 45 117.239 45 120ZM260 125C262.761 125 265 122.761 265 120C265 117.239 262.761 115 260 115C257.239 115 255 117.239 255 120C255 122.761 257.239 125 260 125Z" fill="url(#paint1_linear_1_54)"/>
<path fill-rule="evenodd" clip-rule="evenodd" d="M20 220C20 208.954 28.9543 200 40 200H260C271.046 200 280 208.954 280 220V260C280 271.046 271.046 280 260 280H40C28.9543 280 20 271.046 20 260V220ZM45 225C45 227.761 42.7614 230 40 230C37.2386 230 35 227.761 35 225C35 222.239 37.2386 220 40 220C42.7614 220 45 222.239 45 225ZM40 260C42.7614 260 45 257.761 45 255C45 252.239 42.7614 250 40 250C37.2386 250 35 252.239 35 255C35 257.761 37.2386 260 40 260ZM265 225C265 227.761 262.761 230 260 230C257.239 230 255 227.761 255 225C255 222.239 257.239 220 260 220C262.761 220 265 222.239 265 225ZM260 260C262.761 260 265 257.761 265 255C265 252.239 262.761 250 260 250C257.239 250 255 252.239 255 255C255 257.761 257.239 260 260 260Z" fill="url(#paint2_linear_1_54)"/>
<path d="M22.5341 28.4829C23.3437 23.0197 28.3793 19.5217 33.7815 20.67L268.537 70.5688C273.939 71.7171 277.662 77.0767 276.853 82.5399C276.043 88.0031 271.007 91.501 265.605 90.3528L30.8498 40.454C25.4476 39.3057 21.7246 33.9461 22.5341 28.4829Z" fill="url(#paint3_linear_1_54)"/>
<defs>
<linearGradient id="paint0_linear_1_54" x1="280" y1="20" x2="20" y2="280" gradientUnits="userSpaceOnUse">
<stop stop-color="#9A8478"/>
<stop offset="1" stop-color="#1E130C"/>
</linearGradient>
<linearGradient id="paint1_linear_1_54" x1="280" y1="20" x2="20" y2="280" gradientUnits="userSpaceOnUse">
<stop stop-color="#9A8478"/>
<stop offset="1" stop-color="#1E130C"/>
</linearGradient>
<linearGradient id="paint2_linear_1_54" x1="280" y1="20" x2="20" y2="280" gradientUnits="userSpaceOnUse">
<stop stop-color="#9A8478"/>
<stop offset="1" stop-color="#1E130C"/>
</linearGradient>
<linearGradient id="paint3_linear_1_54" x1="280" y1="20" x2="20" y2="280" gradientUnits="userSpaceOnUse">
<stop stop-color="#9A8478"/>
<stop offset="1" stop-color="#1E130C"/>
</linearGradient>
</defs>
</svg>
