<svg width="300" height="300" viewBox="0 0 300 300" fill="none" xmlns="http://www.w3.org/2000/svg">
<path d="M220 180C220 213.137 188.66 240 150 240C111.34 240 80 213.137 80 180C80 146.863 111.34 120 150 120C188.66 120 220 146.863 220 180Z" fill="url(#paint0_linear_1_219)"/>
<path d="M80 180H220C220 240 150 240 150 280C150 240 80 240 80 180Z" fill="url(#paint1_linear_1_219)"/>
<path d="M138 130C132.477 130 128 125.523 128 120C128 114.477 132.477 110 138 110H161C166.523 110 171 114.477 171 120C171 125.523 166.523 130 161 130H138Z" fill="url(#paint2_linear_1_219)"/>
<path d="M150 100C144.477 100 140 95.5228 140 90V30C140 24.4772 144.477 20 150 20C155.523 20 160 24.4772 160 30V90C160 95.5228 155.523 100 150 100Z" fill="url(#paint3_linear_1_219)"/>
<path d="M170 80C170 91.0457 161.046 100 150 100C138.954 100 130 91.0457 130 80C130 68.9543 138.954 60 150 60C161.046 60 170 68.9543 170 80Z" fill="url(#paint4_linear_1_219)"/>
<path d="M170 80C170 91.0457 161.046 100 150 100C138.954 100 130 91.0457 130 80C130 68.9543 138.954 60 150 60C161.046 60 170 68.9543 170 80Z" fill="url(#paint5_linear_1_219)"/>
<path d="M175 55C175 66.0457 166.046 75 155 75C143.954 75 135 66.0457 135 55C135 43.9543 143.954 35 155 35C166.046 35 175 43.9543 175 55Z" fill="url(#paint6_linear_1_219)"/>
<path d="M165 35C165 43.2843 158.284 50 150 50C141.716 50 135 43.2843 135 35C135 26.7157 141.716 20 150 20C158.284 20 165 26.7157 165 35Z" fill="url(#paint7_linear_1_219)"/>
<path d="M160 65C160 73.2843 153.284 80 145 80C136.716 80 130 73.2843 130 65C130 56.7157 136.716 50 145 50C153.284 50 160 56.7157 160 65Z" fill="url(#paint8_linear_1_219)"/>
<path d="M114.246 100.66C110.341 104.566 104.009 104.566 100.104 100.66L57.6777 58.234C53.7724 54.3288 53.7724 47.9971 57.6777 44.0919C61.5829 40.1866 67.9146 40.1866 71.8198 44.0919L114.246 86.5183C118.151 90.4235 118.151 96.7552 114.246 100.66Z" fill="url(#paint9_linear_1_219)"/>
<path d="M114.246 72.3762C122.057 80.1866 122.057 92.8499 114.246 100.66C106.436 108.471 93.7724 108.471 85.962 100.66C78.1515 92.8499 78.1515 80.1866 85.962 72.3762C93.7724 64.5657 106.436 64.5657 114.246 72.3762Z" fill="url(#paint10_linear_1_219)"/>
<path d="M85.962 51.163C93.7724 58.9734 93.7724 71.6367 85.962 79.4472C78.1515 87.2577 65.4882 87.2577 57.6777 79.4472C49.8672 71.6367 49.8672 58.9734 57.6777 51.163C65.4882 43.3525 78.1515 43.3525 85.962 51.163Z" fill="url(#paint11_linear_1_219)"/>
<path d="M78.8909 44.0919C84.7488 49.9498 84.7488 59.4472 78.8909 65.3051C73.033 71.163 63.5356 71.163 57.6777 65.3051C51.8198 59.4472 51.8198 49.9498 57.6777 44.0919C63.5356 38.234 73.033 38.234 78.8909 44.0919Z" fill="url(#paint12_linear_1_219)"/>
<path d="M105.054 53.2843C110.912 59.1421 110.912 68.6396 105.054 74.4975C99.196 80.3553 89.6985 80.3553 83.8406 74.4975C77.9828 68.6396 77.9828 59.1421 83.8406 53.2843C89.6985 47.4264 99.196 47.4264 105.054 53.2843Z" fill="url(#paint13_linear_1_219)"/>
<path d="M186.092 100.66C182.187 96.7552 182.187 90.4235 186.092 86.5183L228.518 44.0919C232.424 40.1866 238.755 40.1866 242.661 44.0919C246.566 47.9971 246.566 54.3287 242.661 58.234L200.234 100.66C196.329 104.566 189.997 104.566 186.092 100.66Z" fill="url(#paint14_linear_1_219)"/>
<path d="M214.376 100.66C206.566 108.471 193.902 108.471 186.092 100.66C178.281 92.8499 178.281 80.1866 186.092 72.3761C193.902 64.5656 206.566 64.5656 214.376 72.3761C222.187 80.1866 222.187 92.8499 214.376 100.66Z" fill="url(#paint15_linear_1_219)"/>
<path d="M227.104 78.033C219.294 85.8435 206.63 85.8435 198.82 78.033C191.009 70.2225 191.009 57.5592 198.82 49.7487C206.63 41.9382 219.294 41.9382 227.104 49.7487C234.915 57.5592 234.915 70.2225 227.104 78.033Z" fill="url(#paint16_linear_1_219)"/>
<path d="M242.661 65.3051C236.803 71.1629 227.305 71.1629 221.447 65.3051C215.589 59.4472 215.589 49.9497 221.447 44.0919C227.305 38.234 236.803 38.234 242.661 44.0919C248.518 49.9497 248.518 59.4472 242.661 65.3051Z" fill="url(#paint17_linear_1_219)"/>
<path d="M241.246 78.033C235.388 83.8908 225.891 83.8908 220.033 78.033C214.175 72.1751 214.175 62.6776 220.033 56.8198C225.891 50.9619 235.388 50.9619 241.246 56.8198C247.104 62.6776 247.104 72.1751 241.246 78.033Z" fill="url(#paint18_linear_1_219)"/>
<defs>
<linearGradient id="paint0_linear_1_219" x1="281" y1="20" x2="19.5" y2="280" gradientUnits="userSpaceOnUse">
<stop stop-color="#2C7744"/>
<stop offset="1" stop-color="#5A3F37"/>
</linearGradient>
<linearGradient id="paint1_linear_1_219" x1="281" y1="20" x2="19.5" y2="280" gradientUnits="userSpaceOnUse">
<stop stop-color="#2C7744"/>
<stop offset="1" stop-color="#5A3F37"/>
</linearGradient>
<linearGradient id="paint2_linear_1_219" x1="281" y1="20" x2="19.5" y2="280" gradientUnits="userSpaceOnUse">
<stop stop-color="#2C7744"/>
<stop offset="1" stop-color="#5A3F37"/>
</linearGradient>
<linearGradient id="paint3_linear_1_219" x1="281" y1="20" x2="19.5" y2="280" gradientUnits="userSpaceOnUse">
<stop stop-color="#2C7744"/>
<stop offset="1" stop-color="#5A3F37"/>
</linearGradient>
<linearGradient id="paint4_linear_1_219" x1="281" y1="20" x2="19.5" y2="280" gradientUnits="userSpaceOnUse">
<stop stop-color="#2C7744"/>
<stop offset="1" stop-color="#5A3F37"/>
</linearGradient>
<linearGradient id="paint5_linear_1_219" x1="281" y1="20" x2="19.5" y2="280" gradientUnits="userSpaceOnUse">
<stop stop-color="#2C7744"/>
<stop offset="1" stop-color="#5A3F37"/>
</linearGradient>
<linearGradient id="paint6_linear_1_219" x1="281" y1="20" x2="19.5" y2="280" gradientUnits="userSpaceOnUse">
<stop stop-color="#2C7744"/>
<stop offset="1" stop-color="#5A3F37"/>
</linearGradient>
<linearGradient id="paint7_linear_1_219" x1="281" y1="20" x2="19.5" y2="280" gradientUnits="userSpaceOnUse">
<stop stop-color="#2C7744"/>
<stop offset="1" stop-color="#5A3F37"/>
</linearGradient>
<linearGradient id="paint8_linear_1_219" x1="281" y1="20" x2="19.5" y2="280" gradientUnits="userSpaceOnUse">
<stop stop-color="#2C7744"/>
<stop offset="1" stop-color="#5A3F37"/>
</linearGradient>
<linearGradient id="paint9_linear_1_219" x1="281" y1="20" x2="19.5" y2="280" gradientUnits="userSpaceOnUse">
<stop stop-color="#2C7744"/>
<stop offset="1" stop-color="#5A3F37"/>
</linearGradient>
<linearGradient id="paint10_linear_1_219" x1="281" y1="20" x2="19.5" y2="280" gradientUnits="userSpaceOnUse">
<stop stop-color="#2C7744"/>
<stop offset="1" stop-color="#5A3F37"/>
</linearGradient>
<linearGradient id="paint11_linear_1_219" x1="281" y1="20" x2="19.5" y2="280" gradientUnits="userSpaceOnUse">
<stop stop-color="#2C7744"/>
<stop offset="1" stop-color="#5A3F37"/>
</linearGradient>
<linearGradient id="paint12_linear_1_219" x1="281" y1="20" x2="19.5" y2="280" gradientUnits="userSpaceOnUse">
<stop stop-color="#2C7744"/>
<stop offset="1" stop-color="#5A3F37"/>
</linearGradient>
<linearGradient id="paint13_linear_1_219" x1="281" y1="20" x2="19.5" y2="280" gradientUnits="userSpaceOnUse">
<stop stop-color="#2C7744"/>
<stop offset="1" stop-color="#5A3F37"/>
</linearGradient>
<linearGradient id="paint14_linear_1_219" x1="281" y1="20" x2="19.5" y2="280" gradientUnits="userSpaceOnUse">
<stop stop-color="#2C7744"/>
<stop offset="1" stop-color="#5A3F37"/>
</linearGradient>
<linearGradient id="paint15_linear_1_219" x1="281" y1="20" x2="19.5" y2="280" gradientUnits="userSpaceOnUse">
<stop stop-color="#2C7744"/>
<stop offset="1" stop-color="#5A3F37"/>
</linearGradient>
<linearGradient id="paint16_linear_1_219" x1="281" y1="20" x2="19.5" y2="280" gradientUnits="userSpaceOnUse">
<stop stop-color="#2C7744"/>
<stop offset="1" stop-color="#5A3F37"/>
</linearGradient>
<linearGradient id="paint17_linear_1_219" x1="281" y1="20" x2="19.5" y2="280" gradientUnits="userSpaceOnUse">
<stop stop-color="#2C7744"/>
<stop offset="1" stop-color="#5A3F37"/>
</linearGradient>
<linearGradient id="paint18_linear_1_219" x1="281" y1="20" x2="19.5" y2="280" gradientUnits="userSpaceOnUse">
<stop stop-color="#2C7744"/>
<stop offset="1" stop-color="#5A3F37"/>
</linearGradient>
</defs>
</svg>
