<svg width="300" height="300" viewBox="0 0 300 300" fill="none" xmlns="http://www.w3.org/2000/svg">
<path d="M20 250C20 238.954 28.9543 230 40 230H260C271.046 230 280 238.954 280 250V260C280 271.046 271.046 280 260 280H40C28.9543 280 20 271.046 20 260V250Z" fill="url(#paint0_linear_1_150)"/>
<path d="M20 210C20 204.477 24.4772 200 30 200H270C275.523 200 280 204.477 280 210C280 215.523 275.523 220 270 220H30C24.4772 220 20 215.523 20 210Z" fill="url(#paint1_linear_1_150)"/>
<path d="M20 80H280C280 91.0457 271.046 100 260 100H40C28.9543 100 20 91.0457 20 80Z" fill="url(#paint2_linear_1_150)"/>
<path d="M35.4415 33.6754C38.1638 25.5086 45.8066 20 54.4152 20H245.585C254.193 20 261.836 25.5086 264.558 33.6754L280 80H20L35.4415 33.6754Z" fill="url(#paint3_linear_1_150)"/>
<path d="M50 160C50 148.954 58.9543 140 70 140H80C91.0457 140 100 148.954 100 160C100 171.046 91.0457 180 80 180H70C58.9543 180 50 171.046 50 160Z" fill="url(#paint4_linear_1_150)"/>
<path d="M200 160C200 148.954 208.954 140 220 140H230C241.046 140 250 148.954 250 160C250 171.046 241.046 180 230 180H220C208.954 180 200 171.046 200 160Z" fill="url(#paint5_linear_1_150)"/>
<path d="M120 160C120 148.954 128.954 140 140 140H160C171.046 140 180 148.954 180 160C180 171.046 171.046 180 160 180H140C128.954 180 120 171.046 120 160Z" fill="url(#paint6_linear_1_150)"/>
<defs>
<linearGradient id="paint0_linear_1_150" x1="280" y1="20" x2="20" y2="280" gradientUnits="userSpaceOnUse">
<stop stop-color="#A5FECB"/>
<stop offset="0.5" stop-color="#20BDFF"/>
<stop offset="1" stop-color="#5433FF"/>
</linearGradient>
<linearGradient id="paint1_linear_1_150" x1="280" y1="20" x2="20" y2="280" gradientUnits="userSpaceOnUse">
<stop stop-color="#A5FECB"/>
<stop offset="0.5" stop-color="#20BDFF"/>
<stop offset="1" stop-color="#5433FF"/>
</linearGradient>
<linearGradient id="paint2_linear_1_150" x1="280" y1="20" x2="20" y2="280" gradientUnits="userSpaceOnUse">
<stop stop-color="#A5FECB"/>
<stop offset="0.5" stop-color="#20BDFF"/>
<stop offset="1" stop-color="#5433FF"/>
</linearGradient>
<linearGradient id="paint3_linear_1_150" x1="280" y1="20" x2="20" y2="280" gradientUnits="userSpaceOnUse">
<stop stop-color="#A5FECB"/>
<stop offset="0.5" stop-color="#20BDFF"/>
<stop offset="1" stop-color="#5433FF"/>
</linearGradient>
<linearGradient id="paint4_linear_1_150" x1="280" y1="20" x2="20" y2="280" gradientUnits="userSpaceOnUse">
<stop stop-color="#A5FECB"/>
<stop offset="0.5" stop-color="#20BDFF"/>
<stop offset="1" stop-color="#5433FF"/>
</linearGradient>
<linearGradient id="paint5_linear_1_150" x1="280" y1="20" x2="20" y2="280" gradientUnits="userSpaceOnUse">
<stop stop-color="#A5FECB"/>
<stop offset="0.5" stop-color="#20BDFF"/>
<stop offset="1" stop-color="#5433FF"/>
</linearGradient>
<linearGradient id="paint6_linear_1_150" x1="280" y1="20" x2="20" y2="280" gradientUnits="userSpaceOnUse">
<stop stop-color="#A5FECB"/>
<stop offset="0.5" stop-color="#20BDFF"/>
<stop offset="1" stop-color="#5433FF"/>
</linearGradient>
</defs>
</svg>
