<svg width="300" height="300" viewBox="0 0 300 300" fill="none" xmlns="http://www.w3.org/2000/svg">
<path d="M45.3979 132.239C39.5448 128.141 36.3228 121.231 36.9456 114.113L41.0337 67.3854C41.6565 60.2673 46.0294 54.0221 52.5052 51.0024L95.0165 31.179C101.492 28.1593 109.087 28.8238 114.94 32.9222L153.364 59.8263C159.217 63.9247 162.439 70.8344 161.816 77.9525L157.728 124.68C157.105 131.798 152.732 138.043 146.256 141.063L103.745 160.886C97.2691 163.906 89.6742 163.242 83.8211 159.143L45.3979 132.239Z" fill="url(#paint0_linear_1_53)"/>
<path d="M184.583 146.779C178.73 142.681 175.508 135.771 176.131 128.653L178.476 101.849C179.099 94.7312 183.472 88.486 189.948 85.4662L214.333 74.0953C220.809 71.0755 228.403 71.74 234.257 75.8384L256.297 91.271C262.15 95.3694 265.372 102.279 264.749 109.397L262.404 136.201C261.781 143.319 257.408 149.564 250.932 152.584L226.547 163.955C220.072 166.975 212.477 166.31 206.623 162.212L184.583 146.779Z" fill="url(#paint1_linear_1_53)"/>
<path d="M110.247 247.646C104.394 243.547 101.172 236.637 101.794 229.519L105.011 192.754C105.634 185.636 110.007 179.39 116.482 176.371L149.931 160.774C156.406 157.754 164.001 158.418 169.854 162.517L200.086 183.685C205.939 187.784 209.161 194.693 208.538 201.811L205.322 238.577C204.699 245.695 200.326 251.94 193.85 254.96L160.402 270.557C153.926 273.577 146.331 272.912 140.478 268.814L110.247 247.646Z" fill="url(#paint2_linear_1_53)"/>
<defs>
<linearGradient id="paint0_linear_1_53" x1="21.5" y1="281.5" x2="280.5" y2="18.5" gradientUnits="userSpaceOnUse">
<stop stop-color="#F37335"/>
<stop offset="1" stop-color="#FDC830"/>
</linearGradient>
<linearGradient id="paint1_linear_1_53" x1="21.5" y1="281.5" x2="280.5" y2="18.5" gradientUnits="userSpaceOnUse">
<stop stop-color="#F37335"/>
<stop offset="1" stop-color="#FDC830"/>
</linearGradient>
<linearGradient id="paint2_linear_1_53" x1="21.5" y1="281.5" x2="280.5" y2="18.5" gradientUnits="userSpaceOnUse">
<stop stop-color="#F37335"/>
<stop offset="1" stop-color="#FDC830"/>
</linearGradient>
</defs>
</svg>
