<svg width="300" height="300" viewBox="0 0 300 300" fill="none" xmlns="http://www.w3.org/2000/svg">
<path d="M150 280C138.954 280 130 271.046 130 260V200C130 188.954 138.954 180 150 180C161.046 180 170 188.954 170 200V260C170 271.046 161.046 280 150 280Z" fill="url(#paint0_linear_1_273)"/>
<path d="M205 105C205 135.376 180.376 160 150 160C119.624 160 95 135.376 95 105C95 74.6243 119.624 50 150 50C180.376 50 205 74.6243 205 105Z" fill="url(#paint1_linear_1_273)"/>
<path d="M260 140C260 167.614 237.614 190 210 190C182.386 190 160 167.614 160 140C160 112.386 182.386 90 210 90C237.614 90 260 112.386 260 140Z" fill="url(#paint2_linear_1_273)"/>
<path d="M220 70C220 97.6142 197.614 120 170 120C142.386 120 120 97.6142 120 70C120 42.3858 142.386 20 170 20C197.614 20 220 42.3858 220 70Z" fill="url(#paint3_linear_1_273)"/>
<path d="M130 140C130 162.091 112.091 180 90 180C67.9086 180 50 162.091 50 140C50 117.909 67.9086 100 90 100C112.091 100 130 117.909 130 140Z" fill="url(#paint4_linear_1_273)"/>
<path d="M208 90C208 112.091 190.091 130 168 130C145.909 130 128 112.091 128 90C128 67.9086 145.909 50 168 50C190.091 50 208 67.9086 208 90Z" fill="url(#paint5_linear_1_273)"/>
<path d="M240 90C240 112.091 222.091 130 200 130C177.909 130 160 112.091 160 90C160 67.9086 177.909 50 200 50C222.091 50 240 67.9086 240 90Z" fill="url(#paint6_linear_1_273)"/>
<path d="M110 110C110 126.569 96.5685 140 80 140C63.4315 140 50 126.569 50 110C50 93.4315 63.4315 80 80 80C96.5685 80 110 93.4315 110 110Z" fill="url(#paint7_linear_1_273)"/>
<path d="M140 70C140 86.5685 126.569 100 110 100C93.4315 100 80 86.5685 80 70C80 53.4315 93.4315 40 110 40C126.569 40 140 53.4315 140 70Z" fill="url(#paint8_linear_1_273)"/>
<defs>
<linearGradient id="paint0_linear_1_273" x1="19.5" y1="280" x2="279.5" y2="20" gradientUnits="userSpaceOnUse">
<stop stop-color="#134E5E"/>
<stop offset="1" stop-color="#71B280"/>
</linearGradient>
<linearGradient id="paint1_linear_1_273" x1="19.5" y1="280" x2="279.5" y2="20" gradientUnits="userSpaceOnUse">
<stop stop-color="#134E5E"/>
<stop offset="1" stop-color="#71B280"/>
</linearGradient>
<linearGradient id="paint2_linear_1_273" x1="19.5" y1="280" x2="279.5" y2="20" gradientUnits="userSpaceOnUse">
<stop stop-color="#134E5E"/>
<stop offset="1" stop-color="#71B280"/>
</linearGradient>
<linearGradient id="paint3_linear_1_273" x1="19.5" y1="280" x2="279.5" y2="20" gradientUnits="userSpaceOnUse">
<stop stop-color="#134E5E"/>
<stop offset="1" stop-color="#71B280"/>
</linearGradient>
<linearGradient id="paint4_linear_1_273" x1="19.5" y1="280" x2="279.5" y2="20" gradientUnits="userSpaceOnUse">
<stop stop-color="#134E5E"/>
<stop offset="1" stop-color="#71B280"/>
</linearGradient>
<linearGradient id="paint5_linear_1_273" x1="19.5" y1="280" x2="279.5" y2="20" gradientUnits="userSpaceOnUse">
<stop stop-color="#134E5E"/>
<stop offset="1" stop-color="#71B280"/>
</linearGradient>
<linearGradient id="paint6_linear_1_273" x1="19.5" y1="280" x2="279.5" y2="20" gradientUnits="userSpaceOnUse">
<stop stop-color="#134E5E"/>
<stop offset="1" stop-color="#71B280"/>
</linearGradient>
<linearGradient id="paint7_linear_1_273" x1="19.5" y1="280" x2="279.5" y2="20" gradientUnits="userSpaceOnUse">
<stop stop-color="#134E5E"/>
<stop offset="1" stop-color="#71B280"/>
</linearGradient>
<linearGradient id="paint8_linear_1_273" x1="19.5" y1="280" x2="279.5" y2="20" gradientUnits="userSpaceOnUse">
<stop stop-color="#134E5E"/>
<stop offset="1" stop-color="#71B280"/>
</linearGradient>
</defs>
</svg>
